<?xml version="1.0" encoding="utf-8"?>
<!-- Generator: Adobe Illustrator 22.0.1, SVG Export Plug-In . SVG Version: 6.00 Build 0)  -->
<svg version="1.1" id="Слой_1" xmlns="http://www.w3.org/2000/svg" xmlns:xlink="http://www.w3.org/1999/xlink" x="0px" y="0px"
	 viewBox="0 0 200.5 200" style="enable-background:new 0 0 200.5 200;" xml:space="preserve">
<style type="text/css">
	.st0{fill:url(#SVGID_1_);}
	.st1{fill:#FFFFFF;}
</style>
<g>
	<g transform="translate(0 35)">
		
			<linearGradient id="SVGID_1_" gradientUnits="userSpaceOnUse" x1="166.665" y1="502.91" x2="166.665" y2="501.91" gradientTransform="matrix(200 0 0 -200 -33233 100547)">
			<stop  offset="0" style="stop-color:#F9F871"/>
			<stop  offset="1" style="stop-color:#F9F871"/>
		</linearGradient>
		<path class="st0" d="M25-35h150c13.8,0,25,11.2,25,25v150c0,13.8-11.2,25-25,25H25c-13.8,0-25-11.2-25-25V-10
			C0-23.8,11.2-35,25-35z"/>
		<path class="st1" d="M125-9h37c6.6,0,12,5.4,12,12v63.5c0,6.6-5.4,12-12,12h-37c-6.6,0-12-5.4-12-12V3C113-3.6,118.4-9,125-9z"/>
		<path class="st1" d="M38-9h37c6.6,0,12,5.4,12,12v113.5c0,6.6-5.4,12-12,12H38c-6.6,0-12-5.4-12-12V3C26-3.6,31.4-9,38-9z"/>
	</g>
</g>
</svg>
